<?xml version="1.0" standalone="no"?>
<!DOCTYPE svg PUBLIC "-//W3C//DTD SVG 20010904//EN"
 "http://www.w3.org/TR/2001/REC-SVG-20010904/DTD/svg10.dtd">
<svg version="1.0" xmlns="http://www.w3.org/2000/svg"
 width="600.000000pt" height="638.000000pt" viewBox="0 0 600.000000 638.000000"
 preserveAspectRatio="xMidYMid meet">

<g transform="translate(0.000000,638.000000) scale(0.100000,-0.100000)"
fill="#000000" stroke="none">
<path stroke="black" stroke-width="75" d="M3457 5776 c-26 -57 -47 -107 -47 -111 0 -5 23 -57 50 -117 28 -60
50 -110 50 -112 0 -2 -117 -84 -260 -181 l-260 -178 22 -36 c12 -20 34 -55 50
-78 24 -35 28 -52 28 -106 0 -38 17 -142 39 -248 26 -120 41 -214 42 -270 l2
-86 -202 -286 c-111 -157 -210 -296 -220 -308 -15 -19 -8 28 40 267 32 159 59
297 59 306 0 20 -245 557 -263 575 -7 7 -72 51 -146 98 l-133 86 -291 -116
-291 -117 -144 41 c-79 23 -149 38 -156 34 -38 -23 -416 -308 -416 -314 0 -6
222 -156 462 -311 l107 -69 288 145 c158 79 290 143 292 140 2 -2 17 -111 32
-241 l28 -238 -107 -108 -107 -107 -45 -307 -45 -308 -143 -73 -142 -74 -278
26 c-152 15 -287 26 -299 26 -15 0 -107 74 -278 225 -229 202 -275 239 -275
219 0 -4 104 -233 312 -685 l39 -85 85 -42 c47 -23 155 -65 242 -93 86 -28
186 -66 221 -86 l64 -36 331 2 331 2 21 -23 c11 -13 67 -90 124 -173 86 -124
134 -181 282 -330 98 -100 178 -184 178 -188 0 -4 -108 -135 -240 -292 -209
-248 -360 -447 -360 -472 0 -12 453 -463 465 -463 6 0 18 19 27 43 9 23 50
120 90 215 l73 172 270 246 c149 135 271 251 272 258 2 6 -33 172 -76 369
l-78 357 -133 176 c-73 96 -130 177 -127 180 6 6 558 154 575 154 23 0 100
-180 228 -535 69 -192 129 -354 134 -359 5 -5 118 20 257 57 235 62 259 66
461 84 117 10 217 20 222 23 9 6 250 419 250 430 0 4 -53 32 -117 63 -65 31
-194 92 -287 137 -93 45 -174 79 -181 76 -7 -2 -43 -48 -80 -101 -37 -53 -72
-98 -78 -101 -7 -2 -53 -7 -104 -12 l-92 -8 -5 26 c-3 14 -10 79 -16 145 -8
77 -24 164 -46 243 l-35 124 26 76 c14 42 33 87 43 98 l17 22 388 -144 389
-144 308 235 308 235 -3 42 c-2 24 3 86 11 138 l13 95 -351 351 -351 352 -86
-23 c-47 -13 -214 -58 -371 -100 -157 -42 -329 -88 -383 -103 l-97 -25 -43 32
c-23 17 -72 52 -109 77 -38 25 -68 50 -68 57 0 7 -20 172 -45 367 -43 337 -44
355 -28 371 10 9 154 129 321 268 166 139 302 257 302 264 0 15 -88 133 -123
165 -17 16 -62 33 -142 53 -69 18 -174 55 -262 94 -80 36 -149 65 -152 65 -4
0 -28 -47 -54 -104z m139 43 c38 -17 70 -32 71 -33 1 -1 9 -59 17 -128 14
-118 31 -178 56 -193 15 -9 12 22 -4 48 -14 22 -44 242 -34 252 3 3 29 -6 59
-19 30 -13 79 -30 111 -36 l56 -13 1 -61 c0 -33 1 -74 3 -91 1 -16 0 -38 -3
-47 -8 -33 14 -22 26 12 10 28 10 41 0 66 -11 28 -11 64 0 101 3 9 13 9 43 0
59 -18 182 -163 157 -185 -6 -5 -147 -123 -314 -262 l-304 -253 -57 11 c-68
14 -80 15 -80 3 0 -5 24 -15 54 -22 30 -6 59 -15 64 -18 5 -3 30 -172 56 -376
26 -203 56 -409 67 -457 10 -48 19 -115 19 -148 0 -33 4 -60 10 -60 15 0 12
147 -5 210 -8 30 -13 56 -10 58 5 6 53 -26 128 -85 l67 -54 93 25 c50 13 263
70 471 126 l379 102 339 -339 340 -338 -8 -65 c-3 -36 -9 -96 -13 -135 l-6
-70 -294 -223 -293 -224 -347 127 c-190 70 -367 136 -394 146 l-47 19 -20 -33
c-11 -17 -28 -56 -37 -84 -9 -29 -20 -53 -24 -53 -3 0 -9 18 -13 40 -7 43 -75
190 -88 190 -13 0 -9 -15 26 -93 19 -42 38 -93 42 -114 4 -21 24 -100 45 -175
36 -126 69 -333 69 -429 0 -23 -20 -78 -55 -152 -30 -63 -55 -123 -55 -131 0
-24 18 -19 26 7 3 12 29 70 56 128 l50 107 71 6 c164 15 147 6 228 121 l72
104 91 -46 c50 -25 92 -46 93 -47 5 -4 -92 -145 -118 -172 -17 -18 -26 -34
-21 -38 13 -8 80 66 122 136 19 32 41 58 48 58 10 0 108 -45 120 -55 2 -2 -10
-29 -26 -61 -48 -95 -62 -133 -51 -140 5 -3 29 38 54 90 24 53 46 96 48 96 5
0 180 -81 185 -86 4 -3 -214 -384 -228 -397 -4 -5 -106 -18 -226 -28 -205 -18
-233 -23 -442 -79 -123 -33 -229 -60 -237 -60 -8 0 -61 135 -140 353 -70 193
-145 387 -167 431 -22 43 -37 80 -34 83 3 3 43 -2 88 -11 93 -18 128 -20 128
-7 0 7 -100 29 -215 46 -31 5 -105 -11 -337 -74 -164 -45 -301 -81 -306 -81
-6 0 -109 136 -153 203 -4 5 -12 7 -18 3 -11 -7 59 -108 291 -413 l139 -183
74 -342 c41 -189 77 -348 79 -355 3 -6 -116 -123 -265 -258 -148 -136 -276
-259 -283 -273 -8 -15 -46 -106 -86 -202 -40 -96 -74 -177 -76 -180 -3 -2 -25
16 -50 41 l-45 45 45 123 c48 128 52 141 37 141 -5 0 -28 -52 -52 -115 -23
-64 -45 -118 -49 -120 -4 -2 -41 31 -83 73 l-76 77 49 85 c27 47 50 91 50 98
0 29 -19 7 -64 -73 -26 -47 -51 -85 -55 -85 -3 0 -37 31 -75 69 l-68 69 64 94
c35 51 169 218 298 372 129 153 237 283 239 288 2 6 -77 92 -176 191 -153 155
-197 207 -297 350 -65 93 -115 171 -112 174 3 3 41 10 85 16 l81 11 67 -45
c100 -66 173 -96 173 -70 0 5 -21 17 -47 27 -27 10 -80 40 -119 67 l-72 49
-102 -16 c-79 -13 -176 -16 -437 -16 l-336 1 -58 34 c-33 19 -132 58 -221 86
-90 29 -199 71 -243 95 l-80 43 -45 98 c-24 54 -94 207 -156 341 -61 133 -110
242 -107 242 3 0 106 -89 229 -197 150 -132 234 -199 252 -202 15 -2 155 -15
312 -30 l285 -26 150 77 c83 42 175 86 206 98 50 18 61 27 91 78 20 31 43 73
53 92 9 19 27 45 39 58 11 13 26 45 33 70 6 26 14 57 18 70 5 13 3 22 -4 22
-13 0 -41 -64 -41 -95 0 -12 -7 -28 -16 -36 -9 -7 -31 -42 -49 -78 -52 -103
-87 -145 -131 -159 -21 -6 -39 -10 -40 -9 -1 1 17 135 41 297 l42 295 109 103
108 102 -29 248 c-36 309 -36 309 5 342 27 22 33 35 38 78 6 63 -13 71 -21 10
-4 -30 -14 -51 -35 -69 -16 -14 -32 -38 -36 -52 -5 -23 -45 -46 -289 -169
-155 -79 -289 -143 -298 -142 -17 0 -139 75 -139 84 0 3 50 40 110 83 61 43
110 83 110 89 0 16 -21 4 -133 -76 -58 -42 -109 -76 -113 -76 -12 0 -164 101
-164 109 0 4 47 42 105 85 58 43 102 82 99 87 -6 10 -25 -2 -152 -97 l-82 -62
-83 54 c-45 30 -82 58 -82 64 0 11 374 290 390 290 6 0 67 -16 135 -36 69 -20
134 -36 145 -36 11 0 144 50 295 111 151 61 278 111 282 111 4 0 67 -38 140
-84 l132 -84 127 -277 128 -276 -70 -347 c-38 -191 -69 -361 -69 -377 0 -17
-9 -64 -20 -104 -20 -70 -20 -102 1 -71 14 23 28 78 41 160 l11 75 230 325
c127 179 254 363 282 410 29 47 71 112 93 144 43 61 49 76 32 76 -6 0 -43 -49
-83 -110 -77 -118 -85 -121 -86 -27 -1 26 -17 120 -36 210 -23 105 -35 189
-35 238 0 73 -2 78 -46 147 -25 40 -44 76 -42 81 1 6 113 85 248 177 135 92
249 170 254 174 4 5 -15 59 -44 122 -29 62 -53 118 -53 123 0 12 80 185 86
185 2 0 35 -14 73 -31z"/>
<path d="M4625 4106 c-35 -16 -70 -52 -80 -83 -3 -13 -11 -23 -17 -23 -6 0
-41 -22 -78 -49 -37 -27 -94 -63 -126 -79 -62 -32 -122 -86 -106 -96 5 -3 20
6 33 21 13 14 48 36 76 49 29 13 85 47 123 75 70 51 71 51 115 40 24 -6 88
-11 143 -11 l99 0 112 -120 c122 -130 151 -149 276 -176 38 -9 85 -25 103 -36
33 -20 50 -19 37 1 -11 19 -59 39 -145 61 -46 12 -98 29 -116 38 -18 9 -80 67
-137 128 -86 92 -105 117 -110 151 -16 95 -114 148 -202 109z m118 -28 c49
-19 79 -108 37 -108 -11 0 -20 7 -20 15 0 42 -43 85 -86 85 -24 0 -77 -58 -70
-76 4 -11 0 -15 -17 -12 -45 6 -5 84 54 105 34 12 51 10 102 -9z"/>
<path d="M4560 3738 c-44 -37 -146 -77 -237 -93 -54 -10 -199 -19 -378 -24
-325 -10 -346 -14 -615 -106 -283 -97 -438 -173 -653 -319 -244 -166 -396
-243 -632 -322 -213 -71 -313 -87 -490 -80 -312 11 -547 102 -655 253 -38 53
-51 44 -21 -14 58 -112 167 -212 296 -274 122 -59 216 -80 387 -86 163 -6 283
5 451 42 268 60 406 115 895 358 394 196 615 292 802 347 322 95 631 99 882
11 63 -22 93 -10 35 14 -122 51 -330 81 -501 72 -347 -18 -641 -122 -1308
-462 -272 -138 -411 -199 -581 -254 -431 -137 -798 -145 -1052 -21 -70 34
-175 108 -183 129 -1 4 37 -12 85 -36 49 -24 133 -55 188 -70 92 -24 116 -26
310 -27 207 -1 212 0 327 31 257 71 496 179 705 320 70 47 151 101 178 120
157 105 490 241 782 319 90 24 122 26 403 34 325 10 397 19 500 66 63 29 130
73 130 85 0 15 -24 9 -50 -13z"/>
<path d="M5335 3440 c-11 -4 -54 -10 -95 -14 -41 -4 -101 -9 -133 -12 l-57 -6
-76 -89 c-71 -84 -77 -88 -112 -87 -20 1 -103 -2 -184 -6 l-147 -9 -65 47
c-65 46 -219 126 -243 126 -32 0 -7 -20 69 -54 45 -20 117 -61 159 -91 43 -30
89 -55 103 -55 17 0 26 -7 30 -23 15 -62 98 -104 171 -87 45 10 105 67 105
100 0 14 7 20 23 20 17 0 44 25 101 94 l79 94 96 6 c133 9 177 16 197 31 21
15 6 25 -21 15z m-495 -240 c0 -6 -7 -24 -15 -40 -36 -69 -144 -80 -197 -21
-28 31 -37 61 -18 61 5 0 14 -9 20 -21 7 -11 27 -27 46 -35 30 -12 39 -12 69
0 19 8 40 26 47 40 11 25 48 37 48 16z"/>
</g>
</svg>
